<svg width="225" height="60" viewBox="0 0 225 60" fill="none" xmlns="http://www.w3.org/2000/svg">
<path d="M82.2782 21.9157V25.7684C82.2782 30.3789 79.62 33.0315 74.4301 33.0315C69.2403 33.0315 66.582 30.3789 66.582 25.7684V10.7368C66.582 6.12626 69.2403 3.47363 74.4301 3.47363C79.62 3.47363 82.2782 6.12626 82.2782 10.7368V13.5157H77.2782V10.421C77.2782 8.33679 76.2023 7.5789 74.5567 7.5789C72.9111 7.5789 71.8352 8.33679 71.8352 10.421V25.9578C71.8352 28.0421 72.9111 28.7368 74.5567 28.7368C76.2023 28.7368 77.2782 27.9789 77.2782 25.9578V21.8526H82.2782V21.9157Z" fill="#8A178C"/>
<path d="M98.3543 24.3788H95.253L94.2403 32.5893H89.9365L90.9492 24.3788H88.6074L88.9872 21.1577H91.3289L92.215 13.6419H89.8732L90.253 10.4209H92.6581L93.4808 3.78931H97.7846L96.9619 10.4209H100.063L100.886 3.78931H105.19L104.367 10.4209H106.835L106.456 13.6419H103.987L103.101 21.1577H105.569L105.19 24.3788H102.721L101.709 32.5893H97.4049L98.3543 24.3788ZM95.6327 21.2209H98.734L99.6201 13.7051H96.5188L95.6327 21.2209Z" fill="#8A178C"/>
<path d="M124.937 24.2525L128.481 3.85254H135.823V32.6525H130.823V11.9999L127.215 32.6525H122.215L118.291 12.2525V32.6525H113.671V3.85254H121.013L124.937 24.2525Z" fill="#8A178C"/>
<path d="M149.24 16.6104H156.013V20.7157H149.24V32.5894H143.987V3.85254H157.911V7.9578H149.24V16.6104Z" fill="#FFB703"/>
<path d="M170 15.9789H177.215V20.0841H170V28.5473H179.114V32.6525H164.747V3.85254H179.114V7.9578H170V15.9789Z" fill="#FFB703"/>
<path d="M201.962 21.9157V25.7684C201.962 30.3789 199.304 33.0315 194.114 33.0315C188.924 33.0315 186.266 30.3789 186.266 25.7684V10.7368C186.266 6.12626 188.924 3.47363 194.114 3.47363C199.304 3.47363 201.962 6.12626 201.962 10.7368V13.5157H196.962V10.421C196.962 8.33679 195.886 7.5789 194.24 7.5789C192.595 7.5789 191.519 8.33679 191.519 10.421V25.9578C191.519 28.0421 192.595 28.7368 194.24 28.7368C195.886 28.7368 196.962 27.9789 196.962 25.9578V21.8526H201.962V21.9157Z" fill="#8A178C"/>
<path d="M209.051 10.7368C209.051 6.12626 211.899 3.47363 217.025 3.47363C222.215 3.47363 225 6.12626 225 10.7368V25.7052C225 30.3157 222.152 32.9684 217.025 32.9684C211.836 32.9684 209.051 30.3157 209.051 25.7052V10.7368ZM214.304 26.021C214.304 28.1052 215.38 28.8631 217.025 28.8631C218.671 28.8631 219.747 28.1052 219.747 26.021V10.421C219.747 8.33679 218.671 7.5789 217.025 7.5789C215.38 7.5789 214.304 8.33679 214.304 10.421V26.021Z" fill="#8A178C"/>
<path d="M28.4172 20.9053L28.3539 27.979L31.8349 30.1263V26.0211L42.9109 33.2211V36.5053L31.7084 43.5158V40.1053L28.2274 42.1895L28.1641 49.2632L46.3919 37.8947V32.5895L28.4172 20.9053Z" fill="url(#paint0_linear)"/>
<path d="M41.5185 33.7263V36.1894L33.1641 41.3684V38.0842L38.5438 34.9263V34.8631L33.2274 31.5789V28.2947L41.5185 33.7263Z" fill="url(#paint1_linear)"/>
<path d="M31.6456 38.9684L31.7089 31.8947L28.2279 29.8105V33.9158L17.1519 26.7158L17.2152 23.4316L28.3544 16.4842V19.8316L31.8355 17.8105V10.7368L13.7342 22.0421L13.6709 27.3473L31.6456 38.9684Z" fill="url(#paint2_linear)"/>
<path d="M18.6074 26.2105V23.7473L26.8986 18.5684V21.7894L21.5821 24.9473V25.0105L26.8986 28.2315V31.4526L18.6074 26.2105Z" fill="url(#paint3_linear)"/>
<path d="M30.0633 60C13.481 60 0 46.5474 0 30C0 13.4526 13.481 0 30.0633 0C46.6456 0 60.1266 13.4526 60.1266 30C60.1266 46.5474 46.6456 60 30.0633 60ZM30.0633 2.77895C15 2.77895 2.78481 14.9684 2.78481 30C2.78481 45.0316 15 57.2211 30.0633 57.2211C45.1266 57.2211 57.3418 45.0316 57.3418 30C57.3418 14.9684 45.0633 2.77895 30.0633 2.77895Z" fill="url(#paint4_linear)"/>
<path d="M66.582 38.021H224.683V39.9157H66.582V38.021Z" fill="url(#paint5_linear)"/>
<path d="M71.5193 52.1686V53.4318C71.5193 54.9476 70.6333 55.7686 68.9877 55.7686C67.3421 55.7686 66.4561 54.9476 66.4561 53.4318V48.6318C66.4561 47.116 67.3421 46.2949 68.9877 46.2949C70.6333 46.2949 71.5193 47.116 71.5193 48.6318V49.516H69.9371V48.5054C69.9371 47.8739 69.6206 47.6212 69.051 47.6212C68.4814 47.6212 68.1649 47.8739 68.1649 48.5054V53.4949C68.1649 54.1265 68.4814 54.3791 69.051 54.3791C69.6206 54.3791 69.9371 54.1265 69.9371 53.4949V52.1686H71.5193Z" fill="#8A178C"/>
<path d="M73.7979 48.5685C73.7979 47.0527 74.6839 46.2317 76.3928 46.2317C78.0384 46.2317 78.9877 47.0527 78.9877 48.5685V53.3685C78.9877 54.8843 78.1017 55.7054 76.3928 55.7054C74.7472 55.7054 73.7979 54.8843 73.7979 53.3685V48.5685ZM75.5067 53.4948C75.5067 54.1264 75.8232 54.3791 76.3928 54.3791C76.9624 54.3791 77.2789 54.1264 77.2789 53.4948V48.5054C77.2789 47.8738 76.9624 47.6212 76.3928 47.6212C75.8232 47.6212 75.5067 47.8738 75.5067 48.5054V53.4948Z" fill="#8A178C"/>
<path d="M85.0004 52.9895L86.1396 46.4211H88.4814V55.7053H86.8991V49.0105L85.6966 55.6421H84.1776L82.9118 49.0737V55.6421H81.4561V46.3579H83.7978L85.0004 52.9895Z" fill="#8A178C"/>
<path d="M94.7472 52.9895L95.8865 46.4211H98.2282V55.7053H96.646V49.0105L95.4434 55.6421H93.8612L92.5953 49.0737V55.6421H91.1396V46.3579H93.4814L94.7472 52.9895Z" fill="#8A178C"/>
<path d="M102.532 46.3579V53.4947C102.532 54.1263 102.849 54.379 103.418 54.379C103.988 54.379 104.304 54.1263 104.304 53.4947V46.3579H105.887V53.4316C105.887 54.9474 105 55.7684 103.355 55.7684C101.709 55.7684 100.823 54.9474 100.823 53.4316V46.3579H102.532Z" fill="#8A178C"/>
<path d="M109.937 48.9474V55.6421H108.418V46.3579H110.57L112.342 51.9158V46.3579H113.861V55.6421H112.026L109.937 48.9474Z" fill="#8A178C"/>
<path d="M116.393 46.3579H118.101V55.6421H116.393V46.3579Z" fill="#8A178C"/>
<path d="M120.254 46.3579H125.507V47.6842H123.735V55.6421H122.026V47.6842H120.254V46.3579Z" fill="#8A178C"/>
<path d="M129.177 52.5474L127.025 46.3579H128.798L130.063 50.5895L131.329 46.3579H132.975L130.823 52.5474V55.6421H129.114V52.5474H129.177Z" fill="#8A178C"/>
<path d="M140.57 50.4632H142.785V51.7895H140.57V55.6421H138.861V46.3579H143.355V47.6842H140.57V50.4632Z" fill="#FFB703"/>
<path d="M147.279 50.2737H149.621V51.6H147.279V54.3158H150.191V55.6421H145.57V46.3579H150.191V47.6842H147.279V50.2737Z" fill="#FFB703"/>
<path d="M154.937 46.2949C156.583 46.2949 157.469 47.116 157.469 48.6318V48.9476H155.886V48.5686C155.886 47.937 155.57 47.6844 155.064 47.6844C154.557 47.6844 154.241 47.937 154.241 48.5686C154.241 50.4633 157.532 50.8423 157.532 53.4949C157.532 55.0107 156.646 55.8318 155 55.8318C153.355 55.8318 152.469 55.0107 152.469 53.4949V52.9265H154.051V53.6212C154.051 54.2528 154.367 54.5054 154.937 54.5054C155.507 54.5054 155.823 54.2528 155.823 53.6212C155.823 51.7265 152.532 51.3476 152.532 48.6949C152.405 47.116 153.292 46.2949 154.937 46.2949Z" fill="#FFB703"/>
<path d="M159.304 46.3579H164.557V47.6842H162.785V55.6421H161.076V47.6842H159.304V46.3579Z" fill="#FFB703"/>
<path d="M175.95 55.6421H174.241L173.925 53.9369H171.836L171.52 55.6421H169.938L171.646 46.3579H174.115L175.95 55.6421ZM172.089 52.7369H173.735L172.912 48.0632L172.089 52.7369Z" fill="#521E87"/>
<path d="M179.621 48.9474V55.6421H178.102V46.3579H180.253L182.026 51.9158V46.3579H183.545V55.6421H181.772L179.621 48.9474Z" fill="#521E87"/>
<path d="M186.076 46.3579H188.734C190.443 46.3579 191.266 47.179 191.266 48.6316V53.3053C191.266 54.8211 190.443 55.579 188.734 55.579H186.076V46.3579ZM187.785 47.6842V54.3158H188.734C189.304 54.3158 189.62 54.0632 189.62 53.4316V48.6316C189.62 48 189.304 47.7474 188.734 47.7474H187.785V47.6842Z" fill="#521E87"/>
<path d="M202.469 52.1686V53.4318C202.469 54.9476 201.582 55.7686 199.937 55.7686C198.291 55.7686 197.405 54.9476 197.405 53.4318V48.6318C197.405 47.116 198.291 46.2949 199.937 46.2949C201.582 46.2949 202.469 47.116 202.469 48.6318V49.516H200.886V48.5054C200.886 47.8739 200.57 47.6212 200 47.6212C199.431 47.6212 199.114 47.8739 199.114 48.5054V53.4949C199.114 54.1265 199.431 54.3791 200 54.3791C200.57 54.3791 200.886 54.1265 200.886 53.4949V52.1686H202.469Z" fill="#521E87"/>
<path d="M204.747 48.5685C204.747 47.0527 205.633 46.2317 207.342 46.2317C209.051 46.2317 209.937 47.0527 209.937 48.5685V53.3685C209.937 54.8843 209.051 55.7054 207.342 55.7054C205.633 55.7054 204.747 54.8843 204.747 53.3685V48.5685ZM206.456 53.4948C206.456 54.1264 206.772 54.3791 207.342 54.3791C207.912 54.3791 208.228 54.1264 208.228 53.4948V48.5054C208.228 47.8738 207.912 47.6212 207.342 47.6212C206.772 47.6212 206.456 47.8738 206.456 48.5054V53.4948Z" fill="#521E87"/>
<path d="M212.405 46.3579H215.063C216.772 46.3579 217.595 47.179 217.595 48.6316V53.3053C217.595 54.8211 216.772 55.579 215.063 55.579H212.405V46.3579ZM214.114 47.6842V54.3158H215.063C215.633 54.3158 215.95 54.0632 215.95 53.4316V48.6316C215.95 48 215.633 47.7474 215.063 47.7474H214.114V47.6842Z" fill="#521E87"/>
<path d="M221.772 50.2737H224.114V51.6H221.772V54.3158H224.684V55.6421H220.063V46.3579H224.684V47.6842H221.772V50.2737Z" fill="#521E87"/>
<defs>
<linearGradient id="paint0_linear" x1="38.6454" y1="43.2465" x2="26.4455" y2="22.0716" gradientUnits="userSpaceOnUse">
<stop stop-color="#521E87"/>
<stop offset="0.1455" stop-color="#5C1D88"/>
<stop offset="0.3882" stop-color="#751A8A"/>
<stop offset="0.5493" stop-color="#8A178C"/>
<stop offset="0.5628" stop-color="#8E1C87"/>
<stop offset="0.7755" stop-color="#C36E42"/>
<stop offset="0.9262" stop-color="#E4A017"/>
<stop offset="1" stop-color="#F1B406"/>
</linearGradient>
<linearGradient id="paint1_linear" x1="37.9479" y1="38.6469" x2="32.3468" y2="28.9252" gradientUnits="userSpaceOnUse">
<stop stop-color="#521E87"/>
<stop offset="0.1455" stop-color="#5C1D88"/>
<stop offset="0.3882" stop-color="#751A8A"/>
<stop offset="0.5493" stop-color="#8A178C"/>
<stop offset="0.5628" stop-color="#8E1C87"/>
<stop offset="0.7755" stop-color="#C36E42"/>
<stop offset="0.9262" stop-color="#E4A017"/>
<stop offset="1" stop-color="#F1B406"/>
</linearGradient>
<linearGradient id="paint2_linear" x1="33.6502" y1="37.8117" x2="21.4859" y2="16.6985" gradientUnits="userSpaceOnUse">
<stop stop-color="#521E87"/>
<stop offset="0.1455" stop-color="#5C1D88"/>
<stop offset="0.3882" stop-color="#751A8A"/>
<stop offset="0.5493" stop-color="#8A178C"/>
<stop offset="0.5628" stop-color="#8E1C87"/>
<stop offset="0.7755" stop-color="#C36E42"/>
<stop offset="0.9262" stop-color="#E4A017"/>
<stop offset="1" stop-color="#F1B406"/>
</linearGradient>
<linearGradient id="paint3_linear" x1="27.7451" y1="30.9899" x2="22.1602" y2="21.2966" gradientUnits="userSpaceOnUse">
<stop stop-color="#521E87"/>
<stop offset="0.1455" stop-color="#5C1D88"/>
<stop offset="0.3882" stop-color="#751A8A"/>
<stop offset="0.5493" stop-color="#8A178C"/>
<stop offset="0.5628" stop-color="#8E1C87"/>
<stop offset="0.7755" stop-color="#C36E42"/>
<stop offset="0.9262" stop-color="#E4A017"/>
<stop offset="1" stop-color="#F1B406"/>
</linearGradient>
<linearGradient id="paint4_linear" x1="45.0783" y1="55.9585" x2="15.125" y2="3.96837" gradientUnits="userSpaceOnUse">
<stop stop-color="#521E87"/>
<stop offset="0.1455" stop-color="#5C1D88"/>
<stop offset="0.3882" stop-color="#751A8A"/>
<stop offset="0.5493" stop-color="#8A178C"/>
<stop offset="0.5628" stop-color="#8E1C87"/>
<stop offset="0.7755" stop-color="#C36E42"/>
<stop offset="0.9262" stop-color="#E4A017"/>
<stop offset="1" stop-color="#F1B406"/>
</linearGradient>
<linearGradient id="paint5_linear" x1="66.5904" y1="38.9757" x2="224.654" y2="38.9757" gradientUnits="userSpaceOnUse">
<stop stop-color="#521E87"/>
<stop offset="0.1455" stop-color="#5C1D88"/>
<stop offset="0.3882" stop-color="#751A8A"/>
<stop offset="0.5493" stop-color="#8A178C"/>
<stop offset="0.5628" stop-color="#8E1C87"/>
<stop offset="0.7755" stop-color="#C36E42"/>
<stop offset="0.9262" stop-color="#E4A017"/>
<stop offset="1" stop-color="#F1B406"/>
</linearGradient>
</defs>
</svg>
